<?xml version="1.0" standalone="no"?>
<!DOCTYPE svg PUBLIC "-//W3C//DTD SVG 20010904//EN"
 "http://www.w3.org/TR/2001/REC-SVG-20010904/DTD/svg10.dtd">
<svg version="1.0" xmlns="http://www.w3.org/2000/svg"
 width="217.000000pt" height="217.000000pt" viewBox="0 0 217.000000 217.000000"
 preserveAspectRatio="xMidYMid meet">
<metadata>
Created by potrace 1.11, written by Peter Selinger 2001-2013
</metadata>
<g transform="translate(0.000000,217.000000) scale(0.100000,-0.100000)"
fill="#000000" stroke="none">
<path d="M1427 2159 c-108 -25 -211 -111 -247 -207 -49 -128 0 -264 125 -346
187 -125 467 -60 560 129 29 59 30 176 2 235 -31 66 -113 142 -183 169 -64 26
-189 35 -257 20z"/>
<path d="M805 2060 c-75 -17 -122 -71 -132 -148 -7 -66 10 -113 57 -156 134
-121 343 18 285 188 -30 87 -121 137 -210 116z"/>
<path d="M395 1861 c-39 -16 -74 -62 -81 -106 -8 -54 0 -77 38 -120 82 -94
238 -32 238 94 0 100 -102 169 -195 132z"/>
<path d="M142 1575 c-75 -63 -32 -175 68 -175 46 0 92 47 92 93 0 91 -93 139
-160 82z"/>
<path d="M1113 1422 c-13 -2 -24 -10 -24 -18 -1 -8 -2 -17 -3 -21 -1 -5 -6
-33 -10 -63 -5 -30 -10 -64 -12 -75 -3 -11 -7 -38 -9 -60 -3 -22 -7 -51 -10
-65 -22 -125 -24 -207 -6 -256 46 -122 151 -175 334 -169 161 4 271 53 334
148 37 55 49 94 58 187 3 36 8 81 10 100 10 78 15 118 20 185 4 39 9 78 11 88
4 13 -1 17 -23 18 -30 1 -97 -2 -100 -4 0 -1 -4 -31 -7 -67 -4 -36 -9 -76 -11
-90 -2 -14 -7 -50 -10 -80 -3 -30 -8 -66 -10 -80 -2 -14 -7 -50 -10 -80 -18
-154 -108 -242 -250 -244 -146 -2 -229 51 -251 159 -2 11 3 60 12 110 9 49 18
104 21 120 2 17 11 66 18 110 27 152 27 145 8 146 -10 0 -27 2 -38 3 -11 1
-30 0 -42 -2z"/>
<path d="M536 1185 c-208 -205 -233 -233 -232 -260 l2 -30 170 -2 c93 -1 182
-2 198 -2 28 -1 28 -2 22 -43 -4 -24 -9 -59 -12 -78 -3 -19 -7 -41 -9 -47 -4
-13 -1 -14 68 -17 49 -1 57 4 63 40 2 16 9 53 14 83 6 30 10 56 10 58 0 1 32
1 70 -1 l70 -4 0 44 0 44 -61 0 -61 0 7 63 c4 34 8 69 10 77 1 8 6 40 9 71 4
31 8 66 11 77 10 56 16 152 9 153 -5 0 -35 1 -67 2 l-58 2 -233 -230z m229 88
c-4 -16 -8 -35 -10 -43 -19 -93 -47 -229 -51 -242 -5 -16 -20 -18 -142 -18
l-137 1 170 164 c93 91 171 165 173 165 3 0 1 -12 -3 -27z"/>
<path d="M93 1300 c-47 -19 -56 -78 -18 -115 31 -32 69 -32 101 0 41 41 22
107 -36 119 -14 3 -35 1 -47 -4z"/>
<path d="M1987 1168 c-37 -27 -24 -74 23 -90 20 -7 45 11 54 39 5 15 1 28 -13
42 -24 24 -40 26 -64 9z"/>
<path d="M110 1044 c-14 -36 -13 -42 15 -60 46 -30 95 13 72 64 -15 33 -74 31
-87 -4z"/>
<path d="M1996 969 c-40 -31 -29 -111 17 -123 33 -8 77 5 89 27 42 79 -37 150
-106 96z"/>
<path d="M1890 722 c-84 -84 18 -216 121 -155 35 21 53 63 45 106 -9 46 -36
68 -90 74 -40 5 -48 2 -76 -25z"/>
<path d="M550 627 c-3 -3 -17 -8 -31 -10 -43 -8 -122 -53 -163 -94 -175 -171
-81 -441 176 -508 107 -29 268 2 345 66 109 89 148 235 93 351 -29 63 -96 127
-169 161 -51 24 -80 31 -155 35 -50 2 -93 2 -96 -1z"/>
<path d="M1654 555 c-91 -39 -115 -155 -47 -227 68 -72 185 -53 228 38 54 114
-66 239 -181 189z"/>
<path d="M1235 434 c-71 -37 -105 -94 -101 -170 10 -182 257 -233 336 -69 25
51 25 98 1 150 -33 71 -86 105 -164 105 -23 0 -55 -7 -72 -16z"/>
</g>
</svg>
